# AST/ASF file generated using VICON BodyLanguage
# -----------------------------------------------
:version 1.10
:name VICON
:units
  mass 1.0
  length 0.45
  angle deg
:documentation
   .ast/.asf automatically generated from VICON data using
   VICON BodyBuilder and BodyLanguage model FoxedUp or BRILLIANT.MOD
:root
   order TX TY TZ RX RY RZ
   axis XYZ
   position 0 0 0  
   orientation 0 0 0 
:bonedata
  begin
     id 1 
     name lhipjoint
     direction 0.603808 -0.713975 0.35448 
     length 2.2025 
     axis 0 0 0  XYZ
  end
  begin
     id 2 
     name lfemur
     direction 0.34202 -0.939693 0  
     length 6.55877  
     axis 0 0 20  XYZ
    dof rx ry rz
    limits (-160.0 20.0)
           (-70.0 70.0)
           (-60.0 70.0)
  end
  begin
     id 3 
     name ltibia
     direction 0.34202 -0.939693 0   
     length 6.80302   
     axis 0 0 20   XYZ
    dof rx
    limits (-10.0 170.0)
  end
  begin
     id 4 
     name lfoot
     direction 0.091848 -0.25235 0.963267   
     length 2.03446   
     axis -90 7.62852e-016 20   XYZ
    dof rx rz
    limits (-45.0 90.0)
           (-70.0 20.0)
  end
  begin
     id 5 
     name ltoes
     direction 1.53608e-011 -4.21925e-011 1   
     length 1.02033   
     axis -90 7.62852e-016 20   XYZ
    dof rx
    limits (-90.0 20.0)
  end
  begin
     id 6 
     name rhipjoint
     direction -0.587285 -0.724947 0.359928   
     length 2.16916  
     axis 0 0 0  XYZ 
  end
  begin
     id 7 
     name rfemur
     direction -0.34202 -0.939693 0   
     length 6.43173   
     axis 0 0 -20   XYZ
    dof rx ry rz
    limits (-160.0 20.0)
           (-70.0 70.0)
           (-70.0 60.0)
  end
  begin
     id 8 
     name rtibia
     direction -0.34202 -0.939693 0   
     length 6.70662   
     axis 0 0 -20   XYZ
    dof rx
    limits (-10.0 170.0)
 end
 begin
     id 9 
     name rfoot
     direction -0.11854 -0.325686 0.938018   
     length 2.0773  
     axis -90 -7.62852e-016 -20   XYZ
    dof rx rz
    limits (-45.0 90.0)
           (-20.0 70.0)
  end
  begin
     id 10 
     name rtoes
     direction -1.53547e-011 -4.21838e-011 1   
     length 1.03267   
     axis -90 -7.62852e-016 -20   XYZ
    dof rx
    limits (-90.0 20.0)
  end
  begin
     id 11 
     name lowerback
     direction -0.0286554 0.999539 0.0100613   
     length 2.08751   
     axis 0 0 0   XYZ
    dof rx ry rz
    limits (-20.0 45.0)
           (-30.0 30.0)
           (-30.0 30.0)
  end
  begin
     id 12 
     name upperback
     direction 0.0227093 0.999705 -0.00860929   
     length 2.08517   
     axis 0 0 0   XYZ
    dof rx ry rz
    limits (-20.0 45.0)
           (-30.0 30.0)
           (-30.0 30.0)
  end
  begin
     id 13 
     name thorax
     direction 0.0351627 0.999285 -0.013892   
     length 2.08412   
     axis 0 0 0   XYZ
    dof rx ry rz
    limits (-20.0 45.0)
           (-30.0 30.0)
           (-30.0 30.0)
  end
  begin
     id 14 
     name lowerneck
     direction -0.0696283 0.997344 0.0213922   
     length 1.44164   
     axis 0 0 0   XYZ
    dof rx ry rz
    limits (-20.0 45.0)
           (-30.0 30.0)
           (-30.0 30.0)
  end
  begin
     id 15 
     name upperneck
     direction 0.0531 0.990412 -0.127531   
     length 1.45022   
     axis 0 0 0   XYZ
    dof rx ry rz
    limits (-20.0 45.0)
           (-30.0 30.0)
           (-30.0 30.0)
  end
  begin
     id 16
     name head
     direction 0.0188154 0.998548 -0.0504727  
     length 1.45845  
     axis 0 0 0   XYZ
    dof rx ry rz
    limits (-20.0 45.0)
           (-30.0 30.0)
           (-30.0 30.0)
  end
  begin
     id 17 
     name lclavicle
     direction 0.961559 0.260051 0.088188  
     length 2.86057  
     axis 0 0 0   XYZ
    dof ry rz
    limits (-20.0 10.0)
           (0.0 20.0)
  end
  begin
     id 18 
     name lhumerus
     direction 1 -4.48959e-011 2.88185e-027   
     length 4.36901   
     axis 180 -30 -90   XYZ
    dof rx ry rz
    limits (-60.0 90.0)
           (-90.0 90.0)
           (-90.0 90.0)
  end
  begin
     id 19
     name lradius
     direction 1 -4.48965e-011 -3.92618e-028   
     length 3.21737   
     axis 180 -30 -90   XYZ
    dof rx
    limits (-10.0 170.0)
  end
  begin
     id 20
     name lwrist
     direction 1 -4.49037e-011 2.57246e-027   
     length 1.60869   
     axis -1.61769e-015 90 90   XYZ
    dof ry
    limits (-180.0 0.0)
 end
  begin
     id 21 
     name lhand
     direction 1 -4.48807e-011 5.12958e-027   
     length 0.564313   
     axis -3.27988e-015 90 90   XYZ
    dof rx rz
    limits (-90.0 90.0)
           (-45.0 45.0)
  end
  begin
     id 22 
     name lfingers
     direction 1 -4.48879e-011 1.02687e-026   
     length 0.454963   
     axis -6.5598e-015 90 90   XYZ
    dof rx
    limits (0.0 90.0)
  end
  begin
     id 23
     name lthumb
     direction 0.707107 -6.3475e-011 0.707107   
     length 0.653239   
     axis -90 45 2.19363e-014   XYZ
    dof rx rz
    limits (-45.0 45.0)
           (-45.0 45.0)
  end
  begin
     id 24 
     name rclavicle
     direction -0.954677 0.253915 0.155304   
     length 3.11497  
     axis 0 0 0   XYZ 
    dof ry rz
    limits (-10.0 20.0)
           (-20.0 0.0)
  end
  begin
     id 25 
     name rhumerus
     direction -1 -4.48958e-011 -8.20169e-028  
     length 4.34118   
     axis 180 30 90   XYZ
    dof rx ry rz
    limits (-90.0 60.0)
           (-90.0 90.0)
           (-90.0 90.0)
  end
  begin
     id 26 
     name rradius
     direction -1 -4.48978e-011 1.5676e-027   
     length 3.09531   
     axis 180 30 90   XYZ
    dof rx
    limits (-10.0 170.0)
  end
  begin
     id 27 
     name rwrist
     direction -1 -4.49001e-011 2.57123e-027   
     length 1.54765   
     axis -1.61769e-015 -90 -90   XYZ
    dof ry
    limits (-180.0 0.0)
  end
  begin
     id 28
     name rhand
     direction -1 -4.48847e-011 5.13225e-027   
     length 0.597446   
     axis -3.27988e-015 -90 -90   XYZ
    dof rx rz
    limits (-90.0 90.0)
           (-45.0 45.0)
  end
  begin
     id 29
     name rfingers
     direction -1 -4.49094e-011 1.02974e-026   
     length 0.481677   
     axis -6.5598e-015 -90 -90   XYZ
    dof rx
    limits (0.0 90.0)
  end
  begin
     id 30
     name rthumb
     direction -0.707107 -6.34859e-011 0.707107   
     length 0.691594   
     axis -90 -45 -2.19363e-014   XYZ
    dof rx rz
    limits (-45.0 45.0)
           (-45.0 45.0)
  end
:hierarchy
  begin
    root lhipjoint rhipjoint lowerback
    lhipjoint lfemur
    lfemur ltibia
    ltibia lfoot
    lfoot ltoes
    rhipjoint rfemur
    rfemur rtibia
    rtibia rfoot
    rfoot rtoes
    lowerback upperback
    upperback thorax
    thorax lowerneck lclavicle rclavicle
    lowerneck upperneck
    upperneck head
    lclavicle lhumerus
    lhumerus lradius
    lradius lwrist
    lwrist lhand lthumb
    lhand lfingers
    rclavicle rhumerus
    rhumerus rradius
    rradius rwrist
    rwrist rhand rthumb
    rhand rfingers
  end

#!OML:ASF G:\acrobat\cartwheel_test 2\Patient 1\Session 1\acrobat.ASF
:FULLY-SPECIFIED
:DEGREES
100
root 8.67226 14.2824 -29.0529 -500.84 179.837 170.751
lowerback 18.6672 -1.40592 3.71053
upperback 8.83213 -1.05619 6.57759
thorax -0.863426 -0.598717 5.10788
lowerneck -11.8591 -1.82535 -11.0816
upperneck 28.0078 0.190915 -0.599212
head 11.0943 -1.13103 1.69387
rclavicle 3.18055e-014 1.92821e-014
rhumerus -15.5969 -5.42196 -57.7884
rradius 35.5959
rwrist -29.8717
rhand -29.2863 27.5304
rfingers 7.12502
rthumb -2.62823 -2.43313
lclavicle 3.18055e-014 1.92821e-014
lhumerus -15.3923 -13.1987 82.2878
lradius 41.4144
lwrist 50.599
lhand -17.0222 43.7052
lfingers 7.12502
lthumb 9.21388 -646.516
rfemur -53.6721 12.5191 30.0583
rtibia 51.1148
rfoot -196.026 170.123
rtoes -42.2907
lfemur -52.9297 -1.91619 -0.0791003
ltibia 58.1588
lfoot 309.72 -4.59794
ltoes 53.6332
101
root 8.60956 13.7258 -29.6758 -501.935 180.625 171.608
lowerback 16.973 -1.06867 1.91237
upperback 8.12115 -0.959693 6.58934
thorax -0.733413 -0.586933 6.08344
lowerneck -10.6987 -1.64659 -11.3052
upperneck 25.9837 0.02383 0.245387
head 10.1065 -1.04586 2.00304
rclavicle -1.78906e-014 1.27222e-014
rhumerus -12.0331 -8.09953 -61.1777
rradius 34.5995
rwrist -28.0745
rhand -31.5002 28.1753
rfingers 7.12502
rthumb -4.76617 -1.75111
lclavicle -1.78906e-014 1.27222e-014
lhumerus -9.74192 -11.0242 80.0213
lradius 38.5254
lwrist 51.1617
lhand -12.7278 39.1113
lfingers 7.12502
lthumb 13.3556 -651.337
rfemur -60.1082 12.1327 30.3389
rtibia 64.7836
rfoot -199.839 166.127
rtoes -39.5134
lfemur -61.5228 1.42735 -2.81212
ltibia 71.5678
lfoot 315.534 -6.31862
ltoes 48.1638
102
root 8.52146 13.4939 -30.2226 -505.602 179.281 170.324
lowerback 18.8019 -1.14967 3.60624
upperback 8.78137 -0.71437 6.93204
thorax -1.00023 -0.438478 5.49288
lowerneck -9.62704 -1.67084 -10.9937
upperneck 24.182 -0.357234 0.615565
head 9.26821 -1.07725 2.02592
rclavicle 1.80894e-014 2.5842e-014
rhumerus -11.6168 -4.65763 -64.708
rradius 36.5778
rwrist -27.5363
rhand -32.5688 30.8168
rfingers 7.12502
rthumb -5.79793 0.916137
lclavicle 1.80894e-014 2.5842e-014
lhumerus -7.61731 -17.08 74.1646
lradius 40.5487
lwrist 58.4703
lhand -14.2001 45.274
lfingers 7.12502
lthumb 11.9361 -645.086
rfemur -63.386 11.6168 33.5992
rtibia 72.8675
rfoot -202.077 165.532
rtoes -37.117
lfemur -67.1676 4.71224 -5.68564
ltibia 81.4029
lfoot 322.412 2.86903
ltoes 36.0987
103
root 8.41715 13.4773 -30.7335 -507.241 180.047 171.931
lowerback 19.6672 -0.541661 1.45671
upperback 8.77225 -0.239601 6.53719
thorax -1.48713 -0.243416 6.22747
lowerneck -8.51295 -1.91529 -10.6414
upperneck 24.0022 -0.865698 0.477439
head 9.02356 -1.2824 1.86964
rclavicle -4.96962e-017 -3.89121e-014
rhumerus -10.8852 3.31963 -68.1931
rradius 39.3912
rwrist -28.1924
rhand -30.089 24.9751
rfingers 7.12502
rthumb -3.40338 -4.97745
lclavicle -4.96962e-017 -3.89121e-014
lhumerus -15.6185 -26.1847 67.4531
lradius 54.5002
lwrist 66.2135
lhand -17.9524 55.0934
lfingers 7.12502
lthumb 8.31625 -635.09
rfemur -64.5489 9.39721 33.3292
rtibia 73.3568
rfoot -202.92 165.614
rtoes -34.4014
lfemur -70.8259 5.60031 -9.85016
ltibia 86.4857
lfoot 328.403 7.65793
ltoes 25.2511
104
root 8.27521 13.6275 -31.1557 -508.923 181.536 170.133
lowerback 20.5996 0.841746 0.843193
upperback 9.2076 1.44738 6.94726
thorax -1.67417 0.552186 6.68742
lowerneck -8.27594 -2.27668 -10.3446
upperneck 25.276 -1.22708 -0.239583
head 9.45084 -1.53283 1.54214
rclavicle 1.95803e-014 4.16454e-014
rhumerus -11.0306 10.1822 -71.5768
rradius 43.0377
rwrist -27.3768
rhand -26.7362 26.8259
rfingers 7.12502
rthumb -0.165341 -3.15374
lclavicle 1.95803e-014 4.16454e-014
lhumerus -16.5662 -19.7171 74.098
lradius 52.381
lwrist 51.6425
lhand -19.447 50.3118
lfingers 7.12502
lthumb 6.87368 -639.82
rfemur -61.9939 10.337 36.0518
rtibia 70.5213
rfoot -203.229 167.826
rtoes -25.8353
lfemur -69.4357 11.517 -10.0232
ltibia 84.4065
lfoot 335.579 6.8052
ltoes 21.2735
